<svg xmlns="http://www.w3.org/2000/svg" xmlns:xlink="http://www.w3.org/1999/xlink" viewBox="0 0 500 500"><defs><clipPath id="freepik--clip-path--inject-9"><path d="M240.27,211.61a64.17,64.17,0,0,1-4.63,7.48A63,63,0,0,1,155.05,238c-1.39-.73-2.75-1.51-4.05-2.33s-2.57-1.66-3.79-2.56c-1.48-1.07-2.9-2.21-4.26-3.4l0,0a1.65,1.65,0,0,1-.24-.22l0,0a63.08,63.08,0,1,1,97.61-17.83Z" style="fill:#FFFFFF;stroke:#263238;stroke-linecap:round;stroke-linejoin:round"></path></clipPath><clipPath id="freepik--clip-path-2--inject-9"><path d="M261.16,407.57a8.14,8.14,0,0,1-3.4-.93c-17-8.87-30.22-23.53-38.18-34.05A125.73,125.73,0,0,1,211.05,360l4.08-17.48s3.84,10,19.27,19.83,33.76,13.07,39.69,23C279.34,394,270.09,408,261.16,407.57Z" style="fill:#fff;stroke:#263238;stroke-linecap:round;stroke-linejoin:round"></path></clipPath><clipPath id="freepik--clip-path-3--inject-9"><path d="M306.56,382.09s-6.31-.19-14.75.09c-12.76.4-30.39,1.84-38.45,6.53l-.38-.13L245.6,386l-.15-.22c-1.36-2-12.33-17.75-28-24.16l-22.16-61.92s23,1,35.57,21.78l6.31,2.28s37.55-11.12,58.57-7.12Z" style="fill:#FFFFFF;stroke:#263238;stroke-linecap:round;stroke-linejoin:round"></path></clipPath><clipPath id="freepik--clip-path-4--inject-9"><path d="M354.81,427.87c-6.35,1.73-13.25-9.43-21.67-21.61h0c-5.56-8-11.78-16.53-18.93-22-.57-.43-1.15-.85-1.73-1.25l4.18-21c8.68,4.55,14.06,11.84,23.07,19.33,14.5,12.07,27.35,19.48,30.91,24.82S365.69,424.9,354.81,427.87Z" style="fill:#fff;stroke:#263238;stroke-linecap:round;stroke-linejoin:round"></path></clipPath><clipPath id="freepik--clip-path-5--inject-9"><path d="M319,382.18a3.47,3.47,0,0,1-2,1.62,7,7,0,0,1-.69.23l-.19,0c-6.71,1.75-21.81-1.89-21.81-1.89s-9.89-4.7-10.49-5.81a27.22,27.22,0,0,1-1.11-2.7l-.27-.79s-3.56-2-4-3.56-1.19-2,1-2.28,14,0,14,0l-12.85-5.24s-8.51-4.29-9.3-5.8-1.78-2.51,2.57-1.91,13.85,3.36,13.85,3.36L295.2,359l-7.44-3.17s-14.64-1.77-11.87-6.32h8.31a85.79,85.79,0,0,1,14,1.78c2.42.74,18.42,10.68,18.42,10.68" style="fill:#fff;stroke:#263238;stroke-linecap:round;stroke-linejoin:round"></path></clipPath><clipPath id="freepik--clip-path-6--inject-9"><path d="M136.78,417.62l36.62,11,67-15.29S199.48,401.71,199.1,402,136.78,417.62,136.78,417.62Z" style="fill:#FFFFFF;stroke:#263238;stroke-linecap:round;stroke-linejoin:round"></path></clipPath><clipPath id="freepik--clip-path-7--inject-9"><path d="M137.31,404.72c-2.57.18-3.21,9.44-.53,12.9l59.16-12.28,4.74-11.22Z" style="fill:#FFFFFF;stroke:#263238;stroke-linecap:round;stroke-linejoin:round"></path></clipPath><clipPath id="freepik--clip-path-8--inject-9"><path d="M139.2,406a8.82,8.82,0,0,1,.45,11A10.41,10.41,0,0,1,139.2,406Z" style="fill:#263238;stroke:#263238;stroke-linecap:round;stroke-linejoin:round"></path></clipPath><clipPath id="freepik--clip-path-9--inject-9"><polygon points="276.07 420.62 340.02 423.24 333.79 445.25 255.12 442.25 276.07 420.62" style="fill:#fff;stroke:#263238;stroke-linecap:round;stroke-linejoin:round"></polygon></clipPath></defs><g id="freepik--background-simple--inject-9"><path d="M67.93,167.09s-27.88,72,11.3,144.5S199.11,422.39,263.7,455.14s131.66,16.8,163.53-36.84-11.84-91.93-11.9-168.42,11.45-96.74-30-161.36-143.06-78.93-219.9-31S67.93,167.09,67.93,167.09Z" style="fill:#fff;opacity:0.7000000000000001"></path><path d="M63.69,139.16C90.4,87.32,140,48.1,201.75,42.58A171.52,171.52,0,0,1,320.48,76.93c16.86,13,31.84,29.55,41.79,48.44,11.42,21.7,14.75,46.72,26.5,68.32,14.61,26.85,42.05,37.93,60.48,61.13,15.17,19.11,20.38,44.72,18.64,69.06-3.18,44.43-29.21,86.61-67.5,109.38-32.37,19.25-71.39,24.56-109,22.81-58-2.69-115.74-21.82-161.42-57.65s-78.51-88.8-86.29-146.33C38.39,213,46.08,173.33,63.69,139.16Z" style="fill:#FFFFFF"></path><path d="M63.69,139.16C90.4,87.32,140,48.1,201.75,42.58A171.52,171.52,0,0,1,320.48,76.93c16.86,13,31.84,29.55,41.79,48.44,11.42,21.7,14.75,46.72,26.5,68.32,14.61,26.85,42.05,37.93,60.48,61.13,15.17,19.11,20.38,44.72,18.64,69.06-3.18,44.43-29.21,86.61-67.5,109.38-32.37,19.25-71.39,24.56-109,22.81-58-2.69-115.74-21.82-161.42-57.65s-78.51-88.8-86.29-146.33C38.39,213,46.08,173.33,63.69,139.16Z" style="fill:#fff;opacity:0.7000000000000001"></path></g></svg>